<mxfile host="app.diagrams.net" modified="2023-03-09T23:11:14.195Z" agent="5.0 (Windows NT 10.0; Win64; x64) AppleWebKit/537.36 (KHTML, like Gecko) Chrome/111.0.0.0 Safari/537.36" etag="U3zL64AQhoP5MWElBPI2" version="20.8.23" type="github">
  <diagram name="Página-1" id="P50X7MhPrI-LDexWpY6p">
    <mxGraphModel dx="2501" dy="1957" grid="1" gridSize="10" guides="1" tooltips="1" connect="1" arrows="1" fold="1" page="1" pageScale="1" pageWidth="827" pageHeight="1169" math="0" shadow="0">
      <root>
        <mxCell id="0" />
        <mxCell id="1" parent="0" />
        <mxCell id="qeOBanc2UnR5er-gMjn1-43" value="" style="rounded=0;whiteSpace=wrap;html=1;fontSize=14;" vertex="1" parent="1">
          <mxGeometry x="-255" y="250" width="470" height="300" as="geometry" />
        </mxCell>
        <mxCell id="qeOBanc2UnR5er-gMjn1-75" style="edgeStyle=orthogonalEdgeStyle;rounded=0;orthogonalLoop=1;jettySize=auto;html=1;entryX=0.481;entryY=1.01;entryDx=0;entryDy=0;entryPerimeter=0;fontSize=14;" edge="1" parent="1" source="qeOBanc2UnR5er-gMjn1-1" target="qeOBanc2UnR5er-gMjn1-43">
          <mxGeometry relative="1" as="geometry" />
        </mxCell>
        <mxCell id="qeOBanc2UnR5er-gMjn1-76" style="edgeStyle=orthogonalEdgeStyle;rounded=0;orthogonalLoop=1;jettySize=auto;html=1;entryX=0.5;entryY=1;entryDx=0;entryDy=0;fontSize=14;" edge="1" parent="1" source="qeOBanc2UnR5er-gMjn1-1" target="qeOBanc2UnR5er-gMjn1-47">
          <mxGeometry relative="1" as="geometry" />
        </mxCell>
        <mxCell id="qeOBanc2UnR5er-gMjn1-77" style="edgeStyle=orthogonalEdgeStyle;rounded=0;orthogonalLoop=1;jettySize=auto;html=1;exitX=1;exitY=0.5;exitDx=0;exitDy=0;exitPerimeter=0;entryX=0.923;entryY=1.05;entryDx=0;entryDy=0;entryPerimeter=0;fontSize=14;" edge="1" parent="1" source="qeOBanc2UnR5er-gMjn1-1" target="qeOBanc2UnR5er-gMjn1-67">
          <mxGeometry relative="1" as="geometry" />
        </mxCell>
        <mxCell id="qeOBanc2UnR5er-gMjn1-78" style="edgeStyle=orthogonalEdgeStyle;rounded=0;orthogonalLoop=1;jettySize=auto;html=1;fontSize=14;" edge="1" parent="1" source="qeOBanc2UnR5er-gMjn1-1" target="qeOBanc2UnR5er-gMjn1-69">
          <mxGeometry relative="1" as="geometry" />
        </mxCell>
        <mxCell id="qeOBanc2UnR5er-gMjn1-79" style="edgeStyle=orthogonalEdgeStyle;rounded=0;orthogonalLoop=1;jettySize=auto;html=1;entryX=0.5;entryY=1;entryDx=0;entryDy=0;fontSize=14;" edge="1" parent="1" source="qeOBanc2UnR5er-gMjn1-1" target="qeOBanc2UnR5er-gMjn1-71">
          <mxGeometry relative="1" as="geometry" />
        </mxCell>
        <mxCell id="qeOBanc2UnR5er-gMjn1-80" style="edgeStyle=orthogonalEdgeStyle;rounded=0;orthogonalLoop=1;jettySize=auto;html=1;entryX=0.5;entryY=1;entryDx=0;entryDy=0;fontSize=14;" edge="1" parent="1" source="qeOBanc2UnR5er-gMjn1-1" target="qeOBanc2UnR5er-gMjn1-74">
          <mxGeometry relative="1" as="geometry" />
        </mxCell>
        <mxCell id="qeOBanc2UnR5er-gMjn1-1" value="DB BANNER" style="shape=cylinder3;whiteSpace=wrap;html=1;boundedLbl=1;backgroundOutline=1;size=15;" vertex="1" parent="1">
          <mxGeometry x="417.5" y="680" width="70" height="90" as="geometry" />
        </mxCell>
        <mxCell id="qeOBanc2UnR5er-gMjn1-8" style="edgeStyle=orthogonalEdgeStyle;rounded=0;orthogonalLoop=1;jettySize=auto;html=1;entryX=0;entryY=0.5;entryDx=0;entryDy=0;" edge="1" parent="1" source="qeOBanc2UnR5er-gMjn1-3" target="qeOBanc2UnR5er-gMjn1-6">
          <mxGeometry relative="1" as="geometry" />
        </mxCell>
        <mxCell id="qeOBanc2UnR5er-gMjn1-66" style="edgeStyle=orthogonalEdgeStyle;rounded=0;orthogonalLoop=1;jettySize=auto;html=1;entryX=0.5;entryY=0;entryDx=0;entryDy=0;fontSize=14;" edge="1" parent="1" source="qeOBanc2UnR5er-gMjn1-3" target="qeOBanc2UnR5er-gMjn1-49">
          <mxGeometry relative="1" as="geometry" />
        </mxCell>
        <mxCell id="qeOBanc2UnR5er-gMjn1-68" style="edgeStyle=orthogonalEdgeStyle;rounded=0;orthogonalLoop=1;jettySize=auto;html=1;exitX=1;exitY=0.5;exitDx=0;exitDy=0;entryX=0.5;entryY=0;entryDx=0;entryDy=0;fontSize=14;" edge="1" parent="1" source="qeOBanc2UnR5er-gMjn1-3" target="qeOBanc2UnR5er-gMjn1-67">
          <mxGeometry relative="1" as="geometry" />
        </mxCell>
        <mxCell id="qeOBanc2UnR5er-gMjn1-70" style="edgeStyle=orthogonalEdgeStyle;rounded=0;orthogonalLoop=1;jettySize=auto;html=1;entryX=0.5;entryY=0;entryDx=0;entryDy=0;fontSize=14;" edge="1" parent="1" source="qeOBanc2UnR5er-gMjn1-3" target="qeOBanc2UnR5er-gMjn1-69">
          <mxGeometry relative="1" as="geometry" />
        </mxCell>
        <mxCell id="qeOBanc2UnR5er-gMjn1-72" style="edgeStyle=orthogonalEdgeStyle;rounded=0;orthogonalLoop=1;jettySize=auto;html=1;entryX=0.5;entryY=0;entryDx=0;entryDy=0;fontSize=14;" edge="1" parent="1" source="qeOBanc2UnR5er-gMjn1-3" target="qeOBanc2UnR5er-gMjn1-71">
          <mxGeometry relative="1" as="geometry" />
        </mxCell>
        <mxCell id="qeOBanc2UnR5er-gMjn1-73" style="edgeStyle=orthogonalEdgeStyle;rounded=0;orthogonalLoop=1;jettySize=auto;html=1;fontSize=14;entryX=0.5;entryY=0;entryDx=0;entryDy=0;" edge="1" parent="1" source="qeOBanc2UnR5er-gMjn1-3" target="qeOBanc2UnR5er-gMjn1-74">
          <mxGeometry relative="1" as="geometry">
            <mxPoint x="1280" y="160" as="targetPoint" />
          </mxGeometry>
        </mxCell>
        <mxCell id="qeOBanc2UnR5er-gMjn1-3" value="Sistema Banner" style="rounded=0;whiteSpace=wrap;html=1;" vertex="1" parent="1">
          <mxGeometry x="440" y="-10" width="180" height="120" as="geometry" />
        </mxCell>
        <mxCell id="qeOBanc2UnR5er-gMjn1-44" style="edgeStyle=orthogonalEdgeStyle;rounded=0;orthogonalLoop=1;jettySize=auto;html=1;exitX=0.5;exitY=1;exitDx=0;exitDy=0;entryX=0.5;entryY=0;entryDx=0;entryDy=0;fontSize=14;" edge="1" parent="1" source="qeOBanc2UnR5er-gMjn1-6" target="qeOBanc2UnR5er-gMjn1-43">
          <mxGeometry relative="1" as="geometry" />
        </mxCell>
        <mxCell id="qeOBanc2UnR5er-gMjn1-6" value="SPAIDEN" style="rounded=1;whiteSpace=wrap;html=1;" vertex="1" parent="1">
          <mxGeometry x="-80" y="150" width="120" height="60" as="geometry" />
        </mxCell>
        <mxCell id="qeOBanc2UnR5er-gMjn1-10" value="SPRIDEN" style="swimlane;fontStyle=0;childLayout=stackLayout;horizontal=1;startSize=30;horizontalStack=0;resizeParent=1;resizeParentMax=0;resizeLast=0;collapsible=1;marginBottom=0;whiteSpace=wrap;html=1;" vertex="1" parent="1">
          <mxGeometry x="-240" y="270" width="211" height="60" as="geometry" />
        </mxCell>
        <mxCell id="qeOBanc2UnR5er-gMjn1-16" value="Tabla para información GENERAL&lt;br&gt;" style="text;html=1;align=center;verticalAlign=middle;resizable=0;points=[];autosize=1;strokeColor=none;fillColor=none;" vertex="1" parent="qeOBanc2UnR5er-gMjn1-10">
          <mxGeometry y="30" width="211" height="30" as="geometry" />
        </mxCell>
        <mxCell id="qeOBanc2UnR5er-gMjn1-17" value="&lt;b&gt;&lt;font style=&quot;font-size: 14px;&quot;&gt;FORMAS&amp;nbsp;&lt;/font&gt;&lt;/b&gt;" style="text;html=1;strokeColor=none;fillColor=none;align=center;verticalAlign=middle;whiteSpace=wrap;rounded=0;" vertex="1" parent="1">
          <mxGeometry x="500" y="50" width="60" height="30" as="geometry" />
        </mxCell>
        <mxCell id="qeOBanc2UnR5er-gMjn1-20" value="SPRADDR" style="swimlane;fontStyle=0;childLayout=stackLayout;horizontal=1;startSize=30;horizontalStack=0;resizeParent=1;resizeParentMax=0;resizeLast=0;collapsible=1;marginBottom=0;whiteSpace=wrap;html=1;" vertex="1" parent="1">
          <mxGeometry y="270" width="190" height="60" as="geometry" />
        </mxCell>
        <mxCell id="qeOBanc2UnR5er-gMjn1-21" value="Direccion" style="text;html=1;align=center;verticalAlign=middle;resizable=0;points=[];autosize=1;strokeColor=none;fillColor=none;" vertex="1" parent="qeOBanc2UnR5er-gMjn1-20">
          <mxGeometry y="30" width="190" height="30" as="geometry" />
        </mxCell>
        <mxCell id="qeOBanc2UnR5er-gMjn1-28" value="SPRTELE" style="swimlane;fontStyle=0;childLayout=stackLayout;horizontal=1;startSize=30;horizontalStack=0;resizeParent=1;resizeParentMax=0;resizeLast=0;collapsible=1;marginBottom=0;whiteSpace=wrap;html=1;" vertex="1" parent="1">
          <mxGeometry x="-240" y="340" width="210" height="60" as="geometry" />
        </mxCell>
        <mxCell id="qeOBanc2UnR5er-gMjn1-29" value="TELEFONO" style="text;html=1;align=center;verticalAlign=middle;resizable=0;points=[];autosize=1;strokeColor=none;fillColor=none;" vertex="1" parent="qeOBanc2UnR5er-gMjn1-28">
          <mxGeometry y="30" width="210" height="30" as="geometry" />
        </mxCell>
        <mxCell id="qeOBanc2UnR5er-gMjn1-30" value="SPBPERS" style="swimlane;fontStyle=0;childLayout=stackLayout;horizontal=1;startSize=30;horizontalStack=0;resizeParent=1;resizeParentMax=0;resizeLast=0;collapsible=1;marginBottom=0;whiteSpace=wrap;html=1;" vertex="1" parent="1">
          <mxGeometry y="340" width="190" height="60" as="geometry" />
        </mxCell>
        <mxCell id="qeOBanc2UnR5er-gMjn1-31" value="BIOGRAFIAS" style="text;html=1;align=center;verticalAlign=middle;resizable=0;points=[];autosize=1;strokeColor=none;fillColor=none;" vertex="1" parent="qeOBanc2UnR5er-gMjn1-30">
          <mxGeometry y="30" width="190" height="30" as="geometry" />
        </mxCell>
        <mxCell id="qeOBanc2UnR5er-gMjn1-32" value="GOREMAL" style="swimlane;fontStyle=0;childLayout=stackLayout;horizontal=1;startSize=30;horizontalStack=0;resizeParent=1;resizeParentMax=0;resizeLast=0;collapsible=1;marginBottom=0;whiteSpace=wrap;html=1;" vertex="1" parent="1">
          <mxGeometry x="-240" y="410" width="210" height="60" as="geometry" />
        </mxCell>
        <mxCell id="qeOBanc2UnR5er-gMjn1-33" value="Correo electronico" style="text;html=1;align=center;verticalAlign=middle;resizable=0;points=[];autosize=1;strokeColor=none;fillColor=none;" vertex="1" parent="qeOBanc2UnR5er-gMjn1-32">
          <mxGeometry y="30" width="210" height="30" as="geometry" />
        </mxCell>
        <mxCell id="qeOBanc2UnR5er-gMjn1-34" value="SPREMRG" style="swimlane;fontStyle=0;childLayout=stackLayout;horizontal=1;startSize=30;horizontalStack=0;resizeParent=1;resizeParentMax=0;resizeLast=0;collapsible=1;marginBottom=0;whiteSpace=wrap;html=1;" vertex="1" parent="1">
          <mxGeometry y="410" width="190" height="60" as="geometry" />
        </mxCell>
        <mxCell id="qeOBanc2UnR5er-gMjn1-35" value="CONTACTO DE EMERGENCIAS" style="text;html=1;align=center;verticalAlign=middle;resizable=0;points=[];autosize=1;strokeColor=none;fillColor=none;" vertex="1" parent="qeOBanc2UnR5er-gMjn1-34">
          <mxGeometry y="30" width="190" height="30" as="geometry" />
        </mxCell>
        <mxCell id="qeOBanc2UnR5er-gMjn1-36" value="GORADID" style="swimlane;fontStyle=0;childLayout=stackLayout;horizontal=1;startSize=30;horizontalStack=0;resizeParent=1;resizeParentMax=0;resizeLast=0;collapsible=1;marginBottom=0;whiteSpace=wrap;html=1;" vertex="1" parent="1">
          <mxGeometry x="-117.5" y="480" width="195" height="60" as="geometry" />
        </mxCell>
        <mxCell id="qeOBanc2UnR5er-gMjn1-37" value="Identificación adicional&amp;nbsp;" style="text;html=1;align=center;verticalAlign=middle;resizable=0;points=[];autosize=1;strokeColor=none;fillColor=none;" vertex="1" parent="qeOBanc2UnR5er-gMjn1-36">
          <mxGeometry y="30" width="195" height="30" as="geometry" />
        </mxCell>
        <mxCell id="qeOBanc2UnR5er-gMjn1-47" value="" style="rounded=0;whiteSpace=wrap;html=1;fontSize=14;" vertex="1" parent="1">
          <mxGeometry x="270" y="250" width="470" height="300" as="geometry" />
        </mxCell>
        <mxCell id="qeOBanc2UnR5er-gMjn1-48" style="edgeStyle=orthogonalEdgeStyle;rounded=0;orthogonalLoop=1;jettySize=auto;html=1;exitX=0.5;exitY=1;exitDx=0;exitDy=0;entryX=0.5;entryY=0;entryDx=0;entryDy=0;fontSize=14;" edge="1" parent="1" source="qeOBanc2UnR5er-gMjn1-49" target="qeOBanc2UnR5er-gMjn1-47">
          <mxGeometry relative="1" as="geometry" />
        </mxCell>
        <mxCell id="qeOBanc2UnR5er-gMjn1-49" value="SAAADMS" style="rounded=1;whiteSpace=wrap;html=1;" vertex="1" parent="1">
          <mxGeometry x="430" y="150" width="120" height="60" as="geometry" />
        </mxCell>
        <mxCell id="qeOBanc2UnR5er-gMjn1-50" value="SARADAP" style="swimlane;fontStyle=0;childLayout=stackLayout;horizontal=1;startSize=30;horizontalStack=0;resizeParent=1;resizeParentMax=0;resizeLast=0;collapsible=1;marginBottom=0;whiteSpace=wrap;html=1;" vertex="1" parent="1">
          <mxGeometry x="285" y="260" width="211" height="60" as="geometry" />
        </mxCell>
        <mxCell id="qeOBanc2UnR5er-gMjn1-51" value="Solicitud" style="text;html=1;align=center;verticalAlign=middle;resizable=0;points=[];autosize=1;strokeColor=none;fillColor=none;" vertex="1" parent="qeOBanc2UnR5er-gMjn1-50">
          <mxGeometry y="30" width="211" height="30" as="geometry" />
        </mxCell>
        <mxCell id="qeOBanc2UnR5er-gMjn1-52" value="SARADAP" style="swimlane;fontStyle=0;childLayout=stackLayout;horizontal=1;startSize=30;horizontalStack=0;resizeParent=1;resizeParentMax=0;resizeLast=0;collapsible=1;marginBottom=0;whiteSpace=wrap;html=1;" vertex="1" parent="1">
          <mxGeometry x="525" y="260" width="190" height="60" as="geometry" />
        </mxCell>
        <mxCell id="qeOBanc2UnR5er-gMjn1-53" value="Currículos" style="text;html=1;align=center;verticalAlign=middle;resizable=0;points=[];autosize=1;strokeColor=none;fillColor=none;" vertex="1" parent="qeOBanc2UnR5er-gMjn1-52">
          <mxGeometry y="30" width="190" height="30" as="geometry" />
        </mxCell>
        <mxCell id="qeOBanc2UnR5er-gMjn1-54" value="SARCHKL" style="swimlane;fontStyle=0;childLayout=stackLayout;horizontal=1;startSize=30;horizontalStack=0;resizeParent=1;resizeParentMax=0;resizeLast=0;collapsible=1;marginBottom=0;whiteSpace=wrap;html=1;" vertex="1" parent="1">
          <mxGeometry x="285" y="330" width="210" height="60" as="geometry" />
        </mxCell>
        <mxCell id="qeOBanc2UnR5er-gMjn1-55" value="Lista de verificación" style="text;html=1;align=center;verticalAlign=middle;resizable=0;points=[];autosize=1;strokeColor=none;fillColor=none;" vertex="1" parent="qeOBanc2UnR5er-gMjn1-54">
          <mxGeometry y="30" width="210" height="30" as="geometry" />
        </mxCell>
        <mxCell id="qeOBanc2UnR5er-gMjn1-56" value="SARADAP" style="swimlane;fontStyle=0;childLayout=stackLayout;horizontal=1;startSize=30;horizontalStack=0;resizeParent=1;resizeParentMax=0;resizeLast=0;collapsible=1;marginBottom=0;whiteSpace=wrap;html=1;" vertex="1" parent="1">
          <mxGeometry x="525" y="330" width="190" height="60" as="geometry" />
        </mxCell>
        <mxCell id="qeOBanc2UnR5er-gMjn1-57" value="Datos de cuotas" style="text;html=1;align=center;verticalAlign=middle;resizable=0;points=[];autosize=1;strokeColor=none;fillColor=none;" vertex="1" parent="qeOBanc2UnR5er-gMjn1-56">
          <mxGeometry y="30" width="190" height="30" as="geometry" />
        </mxCell>
        <mxCell id="qeOBanc2UnR5er-gMjn1-58" value="SARRSRC" style="swimlane;fontStyle=0;childLayout=stackLayout;horizontal=1;startSize=30;horizontalStack=0;resizeParent=1;resizeParentMax=0;resizeLast=0;collapsible=1;marginBottom=0;whiteSpace=wrap;html=1;" vertex="1" parent="1">
          <mxGeometry x="285" y="400" width="210" height="60" as="geometry" />
        </mxCell>
        <mxCell id="qeOBanc2UnR5er-gMjn1-59" value="intereses&amp;nbsp;" style="text;html=1;align=center;verticalAlign=middle;resizable=0;points=[];autosize=1;strokeColor=none;fillColor=none;" vertex="1" parent="qeOBanc2UnR5er-gMjn1-58">
          <mxGeometry y="30" width="210" height="30" as="geometry" />
        </mxCell>
        <mxCell id="qeOBanc2UnR5er-gMjn1-60" value="SORCONT" style="swimlane;fontStyle=0;childLayout=stackLayout;horizontal=1;startSize=30;horizontalStack=0;resizeParent=1;resizeParentMax=0;resizeLast=0;collapsible=1;marginBottom=0;whiteSpace=wrap;html=1;" vertex="1" parent="1">
          <mxGeometry x="525" y="400" width="190" height="60" as="geometry" />
        </mxCell>
        <mxCell id="qeOBanc2UnR5er-gMjn1-61" value="Contactos" style="text;html=1;align=center;verticalAlign=middle;resizable=0;points=[];autosize=1;strokeColor=none;fillColor=none;" vertex="1" parent="qeOBanc2UnR5er-gMjn1-60">
          <mxGeometry y="30" width="190" height="30" as="geometry" />
        </mxCell>
        <mxCell id="qeOBanc2UnR5er-gMjn1-67" value="&lt;p style=&quot;margin-left:18.0pt;text-align:justify&quot; class=&quot;MsoNormal&quot;&gt;&lt;b&gt;SAADCRV&lt;/b&gt;&lt;/p&gt;" style="rounded=1;whiteSpace=wrap;html=1;" vertex="1" parent="1">
          <mxGeometry x="660" y="150" width="130" height="60" as="geometry" />
        </mxCell>
        <mxCell id="qeOBanc2UnR5er-gMjn1-69" value="&lt;p style=&quot;margin-left:18.0pt;text-align:justify&quot; class=&quot;MsoNormal&quot;&gt;&lt;b&gt;SGASTDN&lt;/b&gt;&lt;/p&gt;" style="rounded=1;whiteSpace=wrap;html=1;" vertex="1" parent="1">
          <mxGeometry x="810" y="150" width="130" height="60" as="geometry" />
        </mxCell>
        <mxCell id="qeOBanc2UnR5er-gMjn1-71" value="&lt;p style=&quot;margin-left:18.0pt;text-align:justify&quot; class=&quot;MsoNormal&quot;&gt;&lt;b&gt;SFAREGS&lt;/b&gt;&lt;/p&gt;" style="rounded=1;whiteSpace=wrap;html=1;" vertex="1" parent="1">
          <mxGeometry x="960" y="150" width="130" height="60" as="geometry" />
        </mxCell>
        <mxCell id="qeOBanc2UnR5er-gMjn1-74" value="&lt;p style=&quot;margin-left:18.0pt;text-align:justify&quot; class=&quot;MsoNormal&quot;&gt;&lt;b&gt;TSAAREV&lt;/b&gt;&lt;/p&gt;" style="rounded=1;whiteSpace=wrap;html=1;" vertex="1" parent="1">
          <mxGeometry x="1110.5" y="150" width="130" height="60" as="geometry" />
        </mxCell>
      </root>
    </mxGraphModel>
  </diagram>
</mxfile>
